<svg xmlns="http://www.w3.org/2000/svg" viewBox="0 0 256 256"><defs><linearGradient id="bg" x1="18%" y1="0%" x2="82%" y2="100%"><stop offset="0%" stop-color="#111c31"/><stop offset="100%" stop-color="#0a1222"/></linearGradient><radialGradient id="g1" cx="24%" cy="20%" r="48%"><stop offset="0%" stop-color="#ff8f5a" stop-opacity="0.68"/><stop offset="100%" stop-color="#ff8f5a" stop-opacity="0"/></radialGradient><radialGradient id="g2" cx="76%" cy="18%" r="28%"><stop offset="0%" stop-color="#60a5fa" stop-opacity="0.28"/><stop offset="100%" stop-color="#60a5fa" stop-opacity="0"/></radialGradient></defs><rect width="256" height="256" rx="58" fill="url(#bg)"/><circle cx="58" cy="54" r="68" fill="url(#g1)"/><circle cx="204" cy="54" r="44" fill="url(#g2)"/><rect x="18" y="18" width="220" height="220" rx="48" fill="none" stroke="rgba(255,255,255,0.1)"/><path d="M18 118 A158 158 0 0 1 238 74" stroke="rgba(255,255,255,0.18)" stroke-width="6" fill="none" stroke-linecap="round"/><rect x="58" y="48" width="126" height="140" rx="22" fill="#f8fbff"/><rect x="58" y="48" width="126" height="140" rx="22" fill="none" stroke="rgba(15,23,42,0.08)"/><path d="M162 48h22v22z" fill="#ffd4b5"/><path d="M162 48l22 22" stroke="#ea8a55" stroke-width="2.2"/><rect x="78" y="76" width="78" height="6" rx="3" fill="#7e90a8" opacity="0.92"/><rect x="78" y="92" width="78" height="6" rx="3" fill="#7e90a8" opacity="0.72"/><rect x="78" y="108" width="78" height="6" rx="3" fill="#7e90a8" opacity="0.72"/><path d="M82 146 C101 136,116 146,130 160 S160 151,178 133" stroke="#2f6df6" stroke-width="6" fill="none" stroke-linecap="round"/><circle cx="82" cy="146" r="5" fill="#fff" stroke="#2f6df6" stroke-width="2.5"/><circle cx="108" cy="138" r="5" fill="#fff" stroke="#2f6df6" stroke-width="2.5"/><circle cx="130" cy="160" r="5" fill="#fff" stroke="#2f6df6" stroke-width="2.5"/><polygon points="177,125 201,133 181,148 185,134" fill="#2f6df6"/></svg>