<svg xmlns="http://www.w3.org/2000/svg" viewBox="0 0 256 256">
  <defs>
    <radialGradient id="g" cx="28%" cy="22%" r="92%">
      <stop offset="0%" stop-color="#f8ca46"/>
      <stop offset="44%" stop-color="#b45a1c"/>
      <stop offset="100%" stop-color="#0d1224"/>
    </radialGradient>
  </defs>
  <rect width="256" height="256" rx="58" fill="url(#g)"/>
  
  <path d="M128 40 L194 62 L184 156 L128 208 L72 156 L62 62 Z" fill="rgba(250,250,248,0.95)"/>
  <path d="M128 54 L178 70 L171 148 L128 186 L85 148 L78 70 Z" fill="#1d4ed8"/>
  <polygon points="128,76 136,102 162,110 136,118 128,144 120,118 94,110 120,102" fill="#facc15"/>
  <circle cx="128" cy="110" r="10" fill="#fff8dc"/>
  <path d="M84 174 C105 197,140 198,173 160" stroke="rgba(255,255,255,0.7)" stroke-width="8" fill="none" stroke-linecap="round"/>
  <path d="M98 170 L120 190 L164 146" stroke="#ffffff" stroke-width="12" fill="none" stroke-linecap="round" stroke-linejoin="round"/>

</svg>
