<svg xmlns="http://www.w3.org/2000/svg" viewBox="0 0 256 256"><defs><linearGradient id="bg" x1="18%" y1="0%" x2="82%" y2="100%"><stop offset="0%" stop-color="#111c31"/><stop offset="100%" stop-color="#0a1222"/></linearGradient><radialGradient id="g1" cx="22%" cy="20%" r="48%"><stop offset="0%" stop-color="#42d8c1" stop-opacity="0.62"/><stop offset="100%" stop-color="#42d8c1" stop-opacity="0"/></radialGradient><radialGradient id="g2" cx="76%" cy="18%" r="28%"><stop offset="0%" stop-color="#67e8f9" stop-opacity="0.2"/><stop offset="100%" stop-color="#67e8f9" stop-opacity="0"/></radialGradient><linearGradient id="tile" x1="0%" y1="0%" x2="100%" y2="100%"><stop offset="0%" stop-color="#41d3bd"/><stop offset="100%" stop-color="#15809a"/></linearGradient></defs><rect width="256" height="256" rx="58" fill="url(#bg)"/><circle cx="56" cy="54" r="70" fill="url(#g1)"/><circle cx="204" cy="54" r="44" fill="url(#g2)"/><rect x="18" y="18" width="220" height="220" rx="48" fill="none" stroke="rgba(255,255,255,0.1)"/><path d="M18 118 A158 158 0 0 1 238 74" stroke="rgba(255,255,255,0.18)" stroke-width="6" fill="none" stroke-linecap="round"/><rect x="88" y="56" width="110" height="110" rx="22" fill="url(#tile)" opacity="0.88"/><rect x="58" y="68" width="124" height="138" rx="24" fill="#f0fbff"/><rect x="58" y="68" width="124" height="138" rx="24" fill="none" stroke="rgba(15,23,42,0.08)"/><rect x="78" y="97" width="80" height="6" rx="3" fill="#728899" opacity="0.92"/><rect x="78" y="114" width="68" height="6" rx="3" fill="#728899" opacity="0.82"/><rect x="78" y="131" width="72" height="6" rx="3" fill="#728899" opacity="0.82"/><circle cx="168" cy="163" r="28" fill="none" stroke="#e3fbff" stroke-width="8"/><path d="M189 184 L212 207" stroke="#e3fbff" stroke-width="10" stroke-linecap="round"/><path d="M151 161 A18 18 0 0 1 176 144" stroke="#2fd4bf" stroke-width="5" fill="none" stroke-linecap="round"/><circle cx="203" cy="51" r="30" fill="#f8fafc"/><circle cx="203" cy="51" r="24" fill="#0f172a"/><text x="203" y="57" font-family="Segoe UI, Arial, sans-serif" font-size="18" font-weight="800" text-anchor="middle" fill="#86efac">QWI</text></svg>